<svg xmlns="http://www.w3.org/2000/svg" width="560" height="340" viewBox="0 0 560 340" fill="none">
  <!-- Terminal window frame -->
  <rect x="0" y="0" width="560" height="340" rx="12" fill="#0d1117"/>
  <rect x="0" y="0" width="560" height="340" rx="12" stroke="#30363d" stroke-width="1"/>

  <!-- Title bar -->
  <rect x="1" y="1" width="558" height="36" rx="11" fill="#161b22"/>
  <circle cx="20" cy="19" r="6" fill="#f85149" opacity="0.9"/>
  <circle cx="40" cy="19" r="6" fill="#d29922" opacity="0.9"/>
  <circle cx="60" cy="19" r="6" fill="#3fb950" opacity="0.9"/>
  <text x="280" y="23" text-anchor="middle" fill="#8b949e" font-family="ui-monospace, monospace" font-size="12">git-watchtower</text>

  <!-- Content area -->
  <!-- Header line -->
  <text x="20" y="62" fill="#58a6ff" font-family="ui-monospace, monospace" font-size="13" font-weight="bold">Git Watchtower</text>
  <text x="152" y="62" fill="#8b949e" font-family="ui-monospace, monospace" font-size="13">|</text>
  <text x="165" y="62" fill="#8b949e" font-family="ui-monospace, monospace" font-size="13">my-project</text>
  <text x="470" y="62" fill="#3fb950" font-family="ui-monospace, monospace" font-size="11">MONITOR</text>

  <!-- Separator -->
  <text x="20" y="80" fill="#30363d" font-family="ui-monospace, monospace" font-size="13">─── ACTIVE BRANCHES ───────────────────────────</text>

  <!-- Branch 1 - NEW -->
  <text x="24" y="102" fill="#f0883e" font-family="ui-monospace, monospace" font-size="12">claude/add-auth-flow</text>
  <text x="370" y="102" fill="#3fb950" font-family="ui-monospace, monospace" font-size="11" font-weight="bold">+ NEW</text>
  <text x="480" y="102" fill="#8b949e" font-family="ui-monospace, monospace" font-size="11">2m ago</text>

  <!-- Sparkline 1 -->
  <rect x="330" y="94" width="2" height="4" fill="#3fb950" opacity="0.3"/>
  <rect x="334" y="93" width="2" height="5" fill="#3fb950" opacity="0.4"/>
  <rect x="338" y="91" width="2" height="7" fill="#3fb950" opacity="0.5"/>
  <rect x="342" y="89" width="2" height="9" fill="#3fb950" opacity="0.7"/>
  <rect x="346" y="87" width="2" height="11" fill="#3fb950" opacity="0.9"/>
  <rect x="350" y="85" width="2" height="13" fill="#3fb950"/>

  <!-- Branch 2 - UPDATES -->
  <text x="24" y="126" fill="#f0883e" font-family="ui-monospace, monospace" font-size="12">claude/refactor-api</text>
  <text x="370" y="126" fill="#d29922" font-family="ui-monospace, monospace" font-size="11" font-weight="bold">↓ UPDATES</text>
  <text x="480" y="126" fill="#8b949e" font-family="ui-monospace, monospace" font-size="11">8m ago</text>

  <!-- Sparkline 2 -->
  <rect x="330" y="120" width="2" height="3" fill="#d29922" opacity="0.3"/>
  <rect x="334" y="118" width="2" height="5" fill="#d29922" opacity="0.3"/>
  <rect x="338" y="115" width="2" height="8" fill="#d29922" opacity="0.5"/>
  <rect x="342" y="118" width="2" height="5" fill="#d29922" opacity="0.6"/>
  <rect x="346" y="116" width="2" height="7" fill="#d29922" opacity="0.8"/>
  <rect x="350" y="113" width="2" height="10" fill="#d29922"/>

  <!-- Branch 3 - CURRENT (highlighted) -->
  <rect x="16" y="135" width="528" height="24" rx="4" fill="#1f6feb" opacity="0.15"/>
  <text x="20" y="152" fill="#58a6ff" font-family="ui-monospace, monospace" font-size="12">▸</text>
  <text x="34" y="152" fill="#f0883e" font-family="ui-monospace, monospace" font-size="12">main</text>
  <text x="370" y="152" fill="#58a6ff" font-family="ui-monospace, monospace" font-size="11" font-weight="bold">✓ CURRENT</text>
  <text x="480" y="152" fill="#8b949e" font-family="ui-monospace, monospace" font-size="11">15m ago</text>

  <!-- Sparkline 3 -->
  <rect x="330" y="146" width="2" height="3" fill="#58a6ff" opacity="0.2"/>
  <rect x="334" y="144" width="2" height="5" fill="#58a6ff" opacity="0.3"/>
  <rect x="338" y="146" width="2" height="3" fill="#58a6ff" opacity="0.3"/>
  <rect x="342" y="145" width="2" height="4" fill="#58a6ff" opacity="0.4"/>
  <rect x="346" y="143" width="2" height="6" fill="#58a6ff" opacity="0.5"/>
  <rect x="350" y="144" width="2" height="5" fill="#58a6ff" opacity="0.6"/>

  <!-- Branch 4 -->
  <text x="24" y="178" fill="#f0883e" font-family="ui-monospace, monospace" font-size="12">feature/dashboard-v2</text>
  <text x="480" y="178" fill="#8b949e" font-family="ui-monospace, monospace" font-size="11">1h ago</text>

  <!-- Sparkline 4 -->
  <rect x="330" y="172" width="2" height="6" fill="#8b949e" opacity="0.2"/>
  <rect x="334" y="174" width="2" height="4" fill="#8b949e" opacity="0.2"/>
  <rect x="338" y="173" width="2" height="5" fill="#8b949e" opacity="0.2"/>
  <rect x="342" y="175" width="2" height="3" fill="#8b949e" opacity="0.15"/>
  <rect x="346" y="176" width="2" height="2" fill="#8b949e" opacity="0.1"/>
  <rect x="350" y="177" width="2" height="1" fill="#8b949e" opacity="0.1"/>

  <!-- Activity log separator -->
  <text x="20" y="210" fill="#30363d" font-family="ui-monospace, monospace" font-size="13">─── ACTIVITY LOG ──────────────────────────────</text>

  <!-- Activity entries -->
  <text x="24" y="232" fill="#8b949e" font-family="ui-monospace, monospace" font-size="11">[2:14 PM]</text>
  <text x="105" y="232" fill="#3fb950" font-family="ui-monospace, monospace" font-size="11">✓</text>
  <text x="120" y="232" fill="#c9d1d9" font-family="ui-monospace, monospace" font-size="11">New branch: claude/add-auth-flow</text>

  <text x="24" y="252" fill="#8b949e" font-family="ui-monospace, monospace" font-size="11">[2:12 PM]</text>
  <text x="105" y="252" fill="#d29922" font-family="ui-monospace, monospace" font-size="11">↓</text>
  <text x="120" y="252" fill="#c9d1d9" font-family="ui-monospace, monospace" font-size="11">3 new commits on claude/refactor-api</text>

  <text x="24" y="272" fill="#8b949e" font-family="ui-monospace, monospace" font-size="11">[2:10 PM]</text>
  <text x="105" y="272" fill="#58a6ff" font-family="ui-monospace, monospace" font-size="11">⟳</text>
  <text x="120" y="272" fill="#c9d1d9" font-family="ui-monospace, monospace" font-size="11">Auto-pulled main (2 commits)</text>

  <!-- Status bar -->
  <rect x="1" y="303" width="558" height="36" rx="0" fill="#161b22"/>
  <rect x="0" y="328" width="560" height="12" rx="0 0 12 12" fill="#161b22"/>
  <text x="20" y="322" fill="#3fb950" font-family="ui-monospace, monospace" font-size="11">● Monitoring</text>
  <text x="140" y="322" fill="#8b949e" font-family="ui-monospace, monospace" font-size="11">4 branches</text>
  <text x="250" y="322" fill="#8b949e" font-family="ui-monospace, monospace" font-size="11">:3000</text>
  <text x="320" y="322" fill="#8b949e" font-family="ui-monospace, monospace" font-size="11">poll: 5s</text>
  <text x="440" y="322" fill="#8b949e" font-family="ui-monospace, monospace" font-size="11">q: quit  h: help</text>
</svg>
